<mxfile host="app.diagrams.net" modified="2022-08-04T03:09:31.998Z" agent="5.0 (Macintosh; Intel Mac OS X 10_15_7) AppleWebKit/537.36 (KHTML, like Gecko) Chrome/103.0.0.0 Safari/537.36" etag="CyjvZZkf2jpQccFIZiD2" version="20.2.0" type="github">
  <diagram id="TwNevkl4osXJ6p4ZxKjI" name="Page-1">
    <mxGraphModel dx="2125" dy="777" grid="1" gridSize="10" guides="1" tooltips="1" connect="1" arrows="1" fold="1" page="1" pageScale="1" pageWidth="827" pageHeight="1169" math="0" shadow="0">
      <root>
        <mxCell id="0" />
        <mxCell id="1" parent="0" />
        <mxCell id="Ma8uvtkhVmst971E_OpM-9" style="edgeStyle=orthogonalEdgeStyle;rounded=0;orthogonalLoop=1;jettySize=auto;html=1;" edge="1" parent="1" source="Ma8uvtkhVmst971E_OpM-1" target="Ma8uvtkhVmst971E_OpM-7">
          <mxGeometry relative="1" as="geometry" />
        </mxCell>
        <mxCell id="Ma8uvtkhVmst971E_OpM-1" value="创建DataLakeCatalog" style="rounded=0;whiteSpace=wrap;html=1;" vertex="1" parent="1">
          <mxGeometry x="80" y="360" width="150" height="60" as="geometry" />
        </mxCell>
        <mxCell id="Ma8uvtkhVmst971E_OpM-2" value="" style="endArrow=none;html=1;rounded=0;" edge="1" parent="1">
          <mxGeometry width="50" height="50" relative="1" as="geometry">
            <mxPoint x="30" y="320" as="sourcePoint" />
            <mxPoint x="810" y="320" as="targetPoint" />
          </mxGeometry>
        </mxCell>
        <mxCell id="Ma8uvtkhVmst971E_OpM-4" style="edgeStyle=orthogonalEdgeStyle;rounded=0;orthogonalLoop=1;jettySize=auto;html=1;entryX=0.5;entryY=0;entryDx=0;entryDy=0;" edge="1" parent="1" source="Ma8uvtkhVmst971E_OpM-3" target="Ma8uvtkhVmst971E_OpM-1">
          <mxGeometry relative="1" as="geometry" />
        </mxCell>
        <mxCell id="Ma8uvtkhVmst971E_OpM-3" value="开通DLC" style="rounded=0;whiteSpace=wrap;html=1;" vertex="1" parent="1">
          <mxGeometry x="80" y="240" width="150" height="60" as="geometry" />
        </mxCell>
        <mxCell id="Ma8uvtkhVmst971E_OpM-5" value="用户操作" style="text;html=1;strokeColor=none;fillColor=none;align=center;verticalAlign=middle;whiteSpace=wrap;rounded=0;" vertex="1" parent="1">
          <mxGeometry x="-20" y="255" width="60" height="30" as="geometry" />
        </mxCell>
        <mxCell id="Ma8uvtkhVmst971E_OpM-6" value="treehole" style="text;html=1;strokeColor=none;fillColor=none;align=center;verticalAlign=middle;whiteSpace=wrap;rounded=0;" vertex="1" parent="1">
          <mxGeometry x="-20" y="375" width="60" height="30" as="geometry" />
        </mxCell>
        <mxCell id="Ma8uvtkhVmst971E_OpM-7" value="创建DataLakeCatalog" style="rounded=0;whiteSpace=wrap;html=1;" vertex="1" parent="1">
          <mxGeometry x="80" y="640" width="150" height="60" as="geometry" />
        </mxCell>
        <mxCell id="Ma8uvtkhVmst971E_OpM-8" value="hybris" style="text;html=1;strokeColor=none;fillColor=none;align=center;verticalAlign=middle;whiteSpace=wrap;rounded=0;" vertex="1" parent="1">
          <mxGeometry x="-20" y="650" width="60" height="30" as="geometry" />
        </mxCell>
        <mxCell id="Ma8uvtkhVmst971E_OpM-10" value="安全相关参数" style="text;html=1;strokeColor=none;fillColor=none;align=center;verticalAlign=middle;whiteSpace=wrap;rounded=0;" vertex="1" parent="1">
          <mxGeometry x="70" y="490" width="60" height="30" as="geometry" />
        </mxCell>
      </root>
    </mxGraphModel>
  </diagram>
</mxfile>
